<?xml version="1.0" encoding="UTF-8"?>
<svg width="10px" height="10px" viewBox="0 0 10 10" version="1.1" xmlns="http://www.w3.org/2000/svg" xmlns:xlink="http://www.w3.org/1999/xlink">
    <!-- Generator: sketchtool 50.2 (55047) - http://www.bohemiancoding.com/sketch -->
    <title>244C174B-7AB9-407B-8153-225A7FAAEA90</title>
    <desc>Created with sketchtool.</desc>
    <defs></defs>
    <g id="Page-1" stroke="none" stroke-width="1" fill="none" fill-rule="evenodd">
        <g id="States---Dark" transform="translate(-253.000000, -299.000000)" fill="#FFFFFF">
            <g id="Group" transform="translate(40.000000, 288.000000)">
                <g id="Group-6" transform="translate(202.000000, 0.000000)">
                    <path d="M20.7465841,19.5227262 C21.084472,19.860614 21.084472,20.4086962 20.7465841,20.7465841 C20.577544,20.9156242 20.3561957,21.0000481 20.1346551,21.0000481 C19.9131145,21.0000481 19.6917663,20.9156242 19.5227262,20.7465841 L16,17.2238579 L12.4772738,20.7465841 C12.3082337,20.9156242 12.0868855,21.0000481 11.8653449,21.0000481 C11.6438043,21.0000481 11.422456,20.9156242 11.2534159,20.7465841 C10.915528,20.4086962 10.915528,19.860614 11.2534159,19.5227262 L14.7761421,16 L11.2534159,12.4772738 C10.915528,12.139386 10.915528,11.5913038 11.2534159,11.2534159 C11.5914961,10.915528 12.1391936,10.915528 12.4772738,11.2534159 L16,14.7761421 L19.5227262,11.2534159 C19.8608064,10.915528 20.4085039,10.915528 20.7465841,11.2534159 C21.084472,11.5913038 21.084472,12.139386 20.7465841,12.4772738 L17.2238579,16 L20.7465841,19.5227262 Z" id="cross"></path>
                </g>
            </g>
        </g>
    </g>
</svg>