<?xml version="1.0" encoding="utf-8"?>
<!-- Svg Vector Icons : http://www.onlinewebfonts.com/icon -->
<!DOCTYPE svg PUBLIC "-//W3C//DTD SVG 1.1//EN" "http://www.w3.org/Graphics/SVG/1.1/DTD/svg11.dtd">
<svg version="1.1" xmlns="http://www.w3.org/2000/svg" xmlns:xlink="http://www.w3.org/1999/xlink" x="0px" y="0px" viewBox="0 0 1000 1000" enable-background="new 0 0 1000 1000" xml:space="preserve">
  <metadata> Svg Vector Icons : http://www.onlinewebfonts.com/icon </metadata>
  <g id="Homepage---Light" stroke="none" stroke-width="1" fill="none" fill-rule="evenodd" transform="translate(-175.000000, -1081.000000)">
    <g id="Announce" transform="translate(165.000000, 1054.000000)" fill="#FFFFFF" fill-rule="nonzero">
      <g id="ic_announce" transform="translate(0.000000, 15.000000)">
        <g><g transform="translate(205.00000,511.000000) scale(0.060000,-0.060000)"><path d="M4815.9,4974.7c-43.7-18.4-110.5-62.1-145-96.6c-126.6-119.7-142.7-172.6-154.2-543.1l-11.5-340.6l-211.7-52.9c-1205.9-306.1-2082.7-1311.8-2216.2-2547.6c-13.8-133.5-23-860.7-23-1811.2c0-1514.3-2.3-1592.5-46-1732.9c-110.5-361.3-437.3-635.2-810.1-678.9l-110.5-13.8v-237v-239.3H5000h3912.3v239.3v237l-110.5,13.8c-372.8,43.7-699.6,317.6-810.1,678.9c-43.7,140.4-46,218.6-46,1739.8c0,874.5-11.5,1684.6-23,1797.3c-131.2,1235.8-1019.5,2259.9-2216.2,2552.2l-211.7,52.9l-11.5,342.9c-11.5,370.5-27.6,423.4-154.2,543.1C5195.6,5006.9,4981.6,5046.1,4815.9,4974.7z"/><path d="M4033.4-3901.5c0-115.1,64.4-313,140.4-435c377.4-591.4,1233.5-607.5,1631.6-29.9c80.5,115.1,161.1,347.5,161.1,460.3v80.5H5000h-966.6V-3901.5z"/></g></g>
      </g>
    </g>
  </g>
</svg>
