<?xml version="1.0" encoding="UTF-8"?>
<svg width="17px" height="18px" viewBox="0 0 17 18" version="1.1" xmlns="http://www.w3.org/2000/svg" xmlns:xlink="http://www.w3.org/1999/xlink">
    <!-- Generator: sketchtool 50.2 (55047) - http://www.bohemiancoding.com/sketch -->
    <title>E216726D-0AC7-49BE-B9F5-7DE455C0F42E</title>
    <desc>Created with sketchtool.</desc>
    <defs></defs>
    <g id="Page-1" stroke="none" stroke-width="1" fill="none" fill-rule="evenodd" stroke-linecap="round" stroke-linejoin="round">
        <g id="Full---Sign-up" transform="translate(-1040.000000, -21.000000)" stroke="#FFFFFF">
            <path d="M1054.2055,35.3322218 C1055.01517,35.3322218 1055.67278,34.6759483 1055.67278,33.8782826 C1055.67278,33.0059191 1054.69504,32.9805752 1054.2055,31.4879533 C1054.2055,31.4879533 1053.77866,28.7934973 1053.71463,27.2555231 C1053.59992,24.3489787 1051.30696,22 1048.33639,22 C1045.36582,22 1043.07286,24.3543143 1042.95682,27.256857 C1042.89546,28.7948312 1042.46728,31.4772822 1042.46728,31.4772822 C1041.97641,32.9899125 1041,33.0019175 1041,33.958316 C1041,34.7493122 1041.65761,35.3322218 1042.46728,35.3322218 L1054.2055,35.3322218 L1054.2055,35.3322218 Z M1045.66861,35.3322218 L1045.66861,35.3322218 C1045.66861,36.8048353 1046.86378,38 1048.33639,38 C1049.809,38 1051.00417,36.8048353 1051.00417,35.3322218 L1045.66861,35.3322218 Z" id="ic_notification_bell"></path>
        </g>
    </g>
</svg>