<?xml version="1.0" encoding="UTF-8"?>
<svg width="10px" height="10px" viewBox="0 0 10 10" version="1.1" xmlns="http://www.w3.org/2000/svg" xmlns:xlink="http://www.w3.org/1999/xlink">
    <!-- Generator: Sketch 48.2 (47327) - http://www.bohemiancoding.com/sketch -->
    <title>6:6:6:6</title>
    <desc>Created with Sketch.</desc>
    <defs></defs>
    <g id="Compare---Light" stroke="none" stroke-width="1" fill="none" fill-rule="evenodd" transform="translate(-391.000000, -203.000000)">
        <g id="Group" transform="translate(165.000000, 177.000000)" fill="#999999">
            <path d="M229.121832,30.536046 L226.295154,27.7093677 C225.90857,27.3227837 225.902881,26.6839296 226.293405,26.2934053 C226.686652,25.9001583 227.317878,25.903664 227.709368,26.2951542 L230.536046,29.1218324 L233.362724,26.2951542 C233.749308,25.9085702 234.388162,25.902881 234.778687,26.2934053 C235.171934,26.6866522 235.168428,27.3178776 234.776938,27.7093677 L231.95026,30.536046 L234.776938,33.3627242 C235.163522,33.7493082 235.169211,34.3881624 234.778687,34.7786867 C234.38544,35.1719336 233.754214,35.1684279 233.362724,34.7769378 L230.536046,31.9502595 L227.709368,34.7769378 C227.322784,35.1635218 226.68393,35.1692109 226.293405,34.7786867 C225.900158,34.3854397 225.903664,33.7542144 226.295154,33.3627242 L229.121832,30.536046 L229.121832,30.536046 Z" id="6:6:6:6"></path>
        </g>
    </g>
</svg>