<?xml version="1.0" encoding="UTF-8"?>
<svg width="17px" height="17px" viewBox="0 0 17 17" version="1.1" xmlns="http://www.w3.org/2000/svg" xmlns:xlink="http://www.w3.org/1999/xlink">
    <!-- Generator: sketchtool 49.3 (51167) - http://www.bohemiancoding.com/sketch -->
    <title>3570D230-3BB0-428C-A082-96CC785E2D84</title>
    <desc>Created with sketchtool.</desc>
    <defs></defs>
    <g id="Page-1" stroke="none" stroke-width="1" fill="none" fill-rule="evenodd">
        <g id="Full---Light" transform="translate(-817.000000, -81.000000)" fill="#FFFFFF" fill-rule="nonzero">
            <g id="Header/Light" transform="translate(0.000000, 60.000000)">
                <path d="M825.5,32.7 C827.267311,32.7 828.7,31.2673112 828.7,29.5 C828.7,27.7326888 827.267311,26.3 825.5,26.3 C823.732689,26.3 822.3,27.7326888 822.3,29.5 C822.3,31.2673112 823.732689,32.7 825.5,32.7 Z M825.5,34 C823.014719,34 821,31.9852814 821,29.5 C821,27.0147186 823.014719,25 825.5,25 C827.985281,25 830,27.0147186 830,29.5 C830,31.9852814 827.985281,34 825.5,34 Z M831.65,29 L833.35,29 C833.708985,29 834,29.2910149 834,29.65 C834,30.0089851 833.708985,30.3 833.35,30.3 L831.65,30.3 C831.291015,30.3 831,30.0089851 831,29.65 C831,29.2910149 831.291015,29 831.65,29 Z M817.65,29 L819.35,29 C819.708985,29 820,29.2910149 820,29.65 C820,30.0089851 819.708985,30.3 819.35,30.3 L817.65,30.3 C817.291015,30.3 817,30.0089851 817,29.65 C817,29.2910149 817.291015,29 817.65,29 Z M825.449988,21 C825.808973,21 826.099988,21.2910149 826.099988,21.65 L826.099988,23.35 C826.099988,23.7089851 825.808973,24 825.449988,24 C825.091003,24 824.799988,23.7089851 824.799988,23.35 L824.799988,21.65 C824.799988,21.2910149 825.091003,21 825.449988,21 Z M831.510648,23.4393398 C831.764489,23.6931806 831.764489,24.1047378 831.510648,24.3585786 L830.308566,25.5606602 C830.054726,25.814501 829.643168,25.814501 829.389328,25.5606602 C829.135487,25.3068194 829.135487,24.8952622 829.389328,24.6414214 L830.591409,23.4393398 C830.84525,23.185499 831.256807,23.185499 831.510648,23.4393398 Z M819.389328,23.4393398 C819.643168,23.185499 820.054726,23.185499 820.308566,23.4393398 L821.510648,24.6414214 C821.764489,24.8952622 821.764489,25.3068194 821.510648,25.5606602 C821.256807,25.814501 820.84525,25.814501 820.591409,25.5606602 L819.389328,24.3585786 C819.135487,24.1047378 819.135487,23.6931806 819.389328,23.4393398 Z M819.389328,35.5606602 C819.135487,35.3068194 819.135487,34.8952622 819.389328,34.6414214 L820.591409,33.4393398 C820.84525,33.185499 821.256807,33.185499 821.510648,33.4393398 C821.764489,33.6931806 821.764489,34.1047378 821.510648,34.3585786 L820.308566,35.5606602 C820.054726,35.814501 819.643168,35.814501 819.389328,35.5606602 Z M831.510648,35.5606602 C831.256807,35.814501 830.84525,35.814501 830.591409,35.5606602 L829.389328,34.3585786 C829.135487,34.1047378 829.135487,33.6931806 829.389328,33.4393398 C829.643168,33.185499 830.054726,33.185499 830.308566,33.4393398 L831.510648,34.6414214 C831.764489,34.8952622 831.764489,35.3068194 831.510648,35.5606602 Z M825.449988,35 C825.808973,35 826.099988,35.2910149 826.099988,35.65 L826.099988,37.35 C826.099988,37.7089851 825.808973,38 825.449988,38 C825.091003,38 824.799988,37.7089851 824.799988,37.35 L824.799988,35.65 C824.799988,35.2910149 825.091003,35 825.449988,35 Z" id="ic_light"></path>
            </g>
        </g>
    </g>
</svg>