<?xml version="1.0" encoding="UTF-8"?>
<svg width="22px" height="19px" viewBox="0 0 22 19" version="1.1" xmlns="http://www.w3.org/2000/svg" xmlns:xlink="http://www.w3.org/1999/xlink">
    <!-- Generator: Sketch 48.2 (47327) - http://www.bohemiancoding.com/sketch -->
    <title>ic_reddit</title>
    <desc>Created with Sketch.</desc>
    <defs></defs>
    <g id="Homepage---Light" stroke="none" stroke-width="1" fill="none" fill-rule="evenodd" transform="translate(-174.000000, -984.000000)">
        <g id="News-Post" transform="translate(165.000000, 958.000000)" fill="#FFFFFF" fill-rule="nonzero">
            <g id="ic_reddit" transform="translate(0.000000, 15.000000)">
                <path d="M28.3557419,17.3494839 C27.7255484,17.3494839 27.1457419,17.5705484 26.6904839,17.9378065 C25.0780968,16.9339677 23.0317419,16.3282581 20.8391935,16.200871 L21.9831935,12.617 L25.1270645,13.3500968 C25.2097419,14.4845161 26.1667419,15.3822581 27.3316774,15.3822581 C28.5505484,15.3822581 29.5430323,14.3993548 29.5430323,13.1907742 C29.5430323,11.9832581 28.5505484,11 27.3316774,11 C26.4797097,11 25.7384516,11.4808065 25.3690645,12.1830323 L21.7156452,11.3310645 C21.4097742,11.2593871 21.1007097,11.4339677 21.0052581,11.7313226 L19.5848387,16.1792258 C17.2219677,16.2370645 15.0003226,16.8438387 13.2697742,17.905871 C12.8209032,17.5584839 12.2567097,17.3494839 11.6446129,17.3494839 C10.1865806,17.3494839 9,18.5250645 9,19.9696129 C9,20.8630968 9.45348387,21.6522581 10.1450645,22.1249032 C10.1159677,22.3328387 10.1010645,22.5414839 10.1010645,22.7540323 C10.1010645,24.5598065 11.1602581,26.2392581 13.0841935,27.4833226 C14.9279355,28.6759355 17.3692258,29.3323871 19.9556452,29.3323871 C22.5424194,29.3323871 24.983,28.6759355 26.8270968,27.4833226 C28.7503226,26.2392581 29.8102258,24.5598065 29.8102258,22.7540323 C29.8102258,22.5613548 29.7967419,22.3693871 29.7733226,22.1788387 C30.5096129,21.714 31,20.897871 31,19.9696129 C31,18.5250645 29.814129,17.3494839 28.3557419,17.3494839 Z M27.3316774,12.190129 C27.8887742,12.190129 28.3419032,12.6397097 28.3419032,13.1904194 C28.3419032,13.7425484 27.8887742,14.1907097 27.3316774,14.1907097 C26.7745806,14.1907097 26.3218065,13.7421935 26.3218065,13.1904194 C26.3214516,12.6397097 26.7745806,12.190129 27.3316774,12.190129 Z M23.6218387,25.9298387 C22.8557419,26.6874194 21.6748387,27.0560968 20.0113548,27.0560968 C20.0074516,27.0560968 20.0039032,27.0553871 19.9996452,27.0553871 C19.9953871,27.0553871 19.9921935,27.0560968 19.9879355,27.0560968 C18.3240968,27.0560968 17.1435484,26.6874194 16.3785161,25.9298387 C16.1432581,25.6970645 16.1432581,25.319871 16.3785161,25.0878065 C16.6127097,24.8557419 16.9930968,24.8557419 17.2283548,25.0878065 C17.7567097,25.6111935 18.6594194,25.8659677 19.9879355,25.8659677 C19.9921935,25.8659677 19.9953871,25.8666774 19.9996452,25.8666774 C20.0039032,25.8666774 20.0074516,25.8659677 20.0113548,25.8659677 C21.339871,25.8659677 22.2432903,25.6108387 22.7723548,25.0878065 C23.0072581,24.8550323 23.3872903,24.8557419 23.6218387,25.0878065 C23.8563871,25.3205806 23.8563871,25.6977742 23.6218387,25.9298387 Z M15.2384194,21.590871 C15.2384194,20.7765161 15.9282258,20.0934516 16.7500323,20.0934516 C17.5718387,20.0934516 18.2389355,20.7765161 18.2389355,21.590871 C18.2389355,22.4052258 17.5718387,23.0662903 16.7500323,23.0662903 C15.9282258,23.0662903 15.2384194,22.4052258 15.2384194,21.590871 Z M23.2730323,23.0662903 C22.450871,23.0662903 21.7596452,22.4052258 21.7596452,21.590871 C21.7596452,20.7758065 22.4505161,20.0934516 23.2730323,20.0934516 C24.0955484,20.0934516 24.7622903,20.7758065 24.7622903,21.590871 C24.7622903,22.4052258 24.0951935,23.0662903 23.2730323,23.0662903 Z"></path>
            </g>
        </g>
    </g>
</svg>