<?xml version="1.0" encoding="UTF-8"?>
<svg width="18px" height="18px" viewBox="0 0 18 18" version="1.1" xmlns="http://www.w3.org/2000/svg" xmlns:xlink="http://www.w3.org/1999/xlink">
    <!-- Generator: Sketch 48.2 (47327) - http://www.bohemiancoding.com/sketch -->
    <title>ic_rss</title>
    <desc>Created with Sketch.</desc>
    <defs></defs>
    <g id="Homepage---Light" stroke="none" stroke-width="1" fill="none" fill-rule="evenodd" transform="translate(-177.000000, -887.000000)">
        <g id="News-Post" transform="translate(165.000000, 862.000000)" fill="#FFFFFF" fill-rule="nonzero">
            <g id="ic_rss" transform="translate(0.000000, 15.000000)">
                <path d="M14.9663014,22.4426027 C13.5882192,22.4426027 12.469589,23.56 12.469589,24.9393151 C12.469589,26.3186301 13.5869863,27.4360274 14.9663014,27.4360274 C16.3456164,27.4360274 17.4630137,26.3186301 17.4630137,24.9393151 C17.4630137,23.56 16.3454795,22.4426027 14.9663014,22.4426027 Z M14.2291781,16.2146575 C13.260137,16.2146575 12.4757534,16.9990411 12.4757534,17.9680822 C12.4757534,18.9357534 13.260137,19.7215068 14.2291781,19.7215068 C17.5164384,19.7215068 20.1915068,22.3964384 20.1915068,25.6838356 C20.1915068,26.6515068 20.9758904,27.4372603 21.9461644,27.4372603 C22.9126027,27.4372603 23.699589,26.6516438 23.699589,25.6838356 C23.699589,20.4621918 19.4508219,16.2146575 14.2291781,16.2146575 Z M14.2628767,9.97794521 C13.2727397,9.97794521 12.469589,10.7811022 12.469589,11.7712469 C12.469589,12.7613917 13.2727397,13.5645487 14.2628767,13.5645487 C20.9235616,13.5645487 26.3434247,18.9832213 26.3434247,25.6439585 C26.3434247,26.6341033 27.1453425,27.4372603 28.1367123,27.4372603 C29.1280822,27.4372603 29.93,26.6328704 29.93,25.6439585 C29.9287671,17.0052606 22.900274,9.97794521 14.2628767,9.97794521 Z"></path>
            </g>
        </g>
    </g>
</svg>