<?xml version="1.0" encoding="UTF-8"?>
<svg width="14px" height="14px" viewBox="0 0 14 14" version="1.1" xmlns="http://www.w3.org/2000/svg" xmlns:xlink="http://www.w3.org/1999/xlink">
    <!-- Generator: Sketch 48.2 (47327) - http://www.bohemiancoding.com/sketch -->
    <title>ic_search</title>
    <desc>Created with Sketch.</desc>
    <defs></defs>
    <g id="Header/Light" stroke="none" stroke-width="1" fill="none" fill-rule="evenodd" transform="translate(-1192.000000, -23.000000)">
        <g fill="#FFFFFF" id="Search">
            <g transform="translate(1071.000000, 15.000000)">
                <path d="M132.222365,17.4776715 L135,20.2522446 L133.250316,22 L130.469505,19.2222547 C129.506715,19.8535441 128.354844,20.220743 127.117115,20.220743 C123.738726,20.220743 121,17.4850367 121,14.1103715 C121,10.7357063 123.738726,8 127.117115,8 C130.495505,8 133.23423,10.7357063 133.23423,14.1103715 C133.23423,15.3547194 132.861863,16.5121923 132.222365,17.4776715 Z M127.117115,18.4749226 C129.53025,18.4749226 131.486483,16.5208466 131.486483,14.1103715 C131.486483,11.6998964 129.53025,9.74582043 127.117115,9.74582043 C124.70398,9.74582043 122.747747,11.6998964 122.747747,14.1103715 C122.747747,16.5208466 124.70398,18.4749226 127.117115,18.4749226 Z" id="ic_search"></path>
            </g>
        </g>
    </g>
</svg>