<?xml version="1.0" encoding="UTF-8"?>
<svg width="14px" height="14px" viewBox="0 0 14 14" version="1.1" xmlns="http://www.w3.org/2000/svg" xmlns:xlink="http://www.w3.org/1999/xlink">
    <!-- Generator: Sketch 48.2 (47327) - http://www.bohemiancoding.com/sketch -->
    <title>ic_search_dimmed</title>
    <desc>Created with Sketch.</desc>
    <defs></defs>
    <g id="Exchanges---Light" stroke="none" stroke-width="1" fill="none" fill-rule="evenodd" transform="translate(-1012.000000, -118.000000)">
        <path d="M1023.22236,127.477671 L1026,130.252245 L1024.25032,132 L1021.4695,129.222255 C1020.50671,129.853544 1019.35484,130.220743 1018.11712,130.220743 C1014.73873,130.220743 1012,127.485037 1012,124.110371 C1012,120.735706 1014.73873,118 1018.11712,118 C1021.4955,118 1024.23423,120.735706 1024.23423,124.110371 C1024.23423,125.354719 1023.86186,126.512192 1023.22236,127.477671 Z M1018.11712,128.474923 C1020.53025,128.474923 1022.48648,126.520847 1022.48648,124.110371 C1022.48648,121.699896 1020.53025,119.74582 1018.11712,119.74582 C1015.70398,119.74582 1013.74775,121.699896 1013.74775,124.110371 C1013.74775,126.520847 1015.70398,128.474923 1018.11712,128.474923 Z" id="ic_search_dimmed" fill="#56667F"></path>
    </g>
</svg>