<?xml version="1.0" encoding="UTF-8"?>
<svg width="21px" height="18px" viewBox="0 0 21 18" version="1.1" xmlns="http://www.w3.org/2000/svg" xmlns:xlink="http://www.w3.org/1999/xlink">
    <!-- Generator: Sketch 48.2 (47327) - http://www.bohemiancoding.com/sketch -->
    <title>ic_twitter</title>
    <desc>Created with Sketch.</desc>
    <defs></defs>
    <g id="Homepage---Light" stroke="none" stroke-width="1" fill="none" fill-rule="evenodd" transform="translate(-175.000000, -1081.000000)">
        <g id="News-Post" transform="translate(165.000000, 1054.000000)" fill="#FFFFFF" fill-rule="nonzero">
            <g id="ic_twitter" transform="translate(0.000000, 15.000000)">
                <path d="M31,14.0202207 C30.2272671,14.3628645 29.3970305,14.5944793 28.5255322,14.6986178 C29.4149953,14.1654157 30.0981502,13.3211107 30.4198761,12.3149994 C29.5873016,12.8087855 28.6653542,13.1673024 27.6839342,13.3604856 C26.8980764,12.5231533 25.778311,12 24.5391083,12 C22.1597555,12 20.2307535,13.9289201 20.2307535,16.3082318 C20.2307535,16.6459128 20.2688569,16.9747344 20.3423157,17.2901029 C16.7616587,17.1103728 13.5870145,15.3951848 11.4620811,12.7885239 C11.0912186,13.424839 10.878717,14.1649235 10.878717,14.9545138 C10.878717,16.4492843 11.6393093,17.7680161 12.7953734,18.5406259 C12.0891268,18.5182314 11.424798,18.324433 10.8439769,18.0017227 C10.8435667,18.0196875 10.8435667,18.0377343 10.8435667,18.0559042 C10.8435667,20.1433493 12.3286986,21.8846233 14.2995775,22.2805053 C13.9381075,22.3789016 13.5574423,22.4317296 13.1645134,22.4317296 C12.8868791,22.4317296 12.6169968,22.4046594 12.3538821,22.3542923 C12.9021779,24.065871 14.4932529,25.3116771 16.3785735,25.3463353 C14.9040646,26.5019893 13.0463476,27.1906813 11.0277675,27.1906813 C10.6799967,27.1906813 10.3370657,27.1703376 10,27.1303474 C11.9066486,28.3528977 14.1713219,29.0661581 16.6043641,29.0661581 C24.5290185,29.0661581 28.8625979,22.5011279 28.8625979,16.8077601 C28.8625979,16.6209753 28.8583323,16.4351749 28.8500882,16.2503589 C29.6919733,15.6429597 30.4224191,14.8841721 31,14.0202207 Z"></path>
            </g>
        </g>
    </g>
</svg>