<?xml version="1.0" encoding="UTF-8"?>
<svg width="10px" height="10px" viewBox="0 0 10 10" version="1.1" xmlns="http://www.w3.org/2000/svg" xmlns:xlink="http://www.w3.org/1999/xlink">
    <!-- Generator: sketchtool 49.3 (51167) - http://www.bohemiancoding.com/sketch -->
    <title>D14C5D97-B14E-4C1B-A4A1-505099125BA4</title>
    <desc>Created with sketchtool.</desc>
    <defs></defs>
    <g id="Page-1" stroke="none" stroke-width="1" fill="none" fill-rule="evenodd">
        <g id="Compare---02" transform="translate(-681.000000, -235.000000)" fill="#999999">
            <g id="Asset---Group" transform="translate(450.000000, 217.000000)">
                <path d="M234.121832,22.536046 L231.295154,19.7093677 C230.90857,19.3227837 230.902881,18.6839296 231.293405,18.2934053 C231.686652,17.9001583 232.317878,17.903664 232.709368,18.2951542 L235.536046,21.1218324 L238.362724,18.2951542 C238.749308,17.9085702 239.388162,17.902881 239.778687,18.2934053 C240.171934,18.6866522 240.168428,19.3178776 239.776938,19.7093677 L236.95026,22.536046 L239.776938,25.3627242 C240.163522,25.7493082 240.169211,26.3881624 239.778687,26.7786867 C239.38544,27.1719336 238.754214,27.1684279 238.362724,26.7769378 L235.536046,23.9502595 L232.709368,26.7769378 C232.322784,27.1635218 231.68393,27.1692109 231.293405,26.7786867 C230.900158,26.3854397 230.903664,25.7542144 231.295154,25.3627242 L234.121832,22.536046 L234.121832,22.536046 Z" id="6:6:6:6"></path>
            </g>
        </g>
    </g>
</svg>