<?xml version="1.0" encoding="UTF-8"?>
<svg width="16px" height="16px" viewBox="0 0 16 16" version="1.1" xmlns="http://www.w3.org/2000/svg" xmlns:xlink="http://www.w3.org/1999/xlink">
    <!-- Generator: sketchtool 50.2 (55047) - http://www.bohemiancoding.com/sketch -->
    <title>6242763A-B871-4016-BFBF-00DC694C7771</title>
    <desc>Created with sketchtool.</desc>
    <defs></defs>
    <g id="Page-1" stroke="none" stroke-width="1" fill="none" fill-rule="evenodd">
        <g id="Predictions" transform="translate(-1145.000000, -706.000000)" fill="#999999" fill-rule="nonzero">
            <g id="Group" transform="translate(165.000000, 680.000000)">
                <g id="UI/Stop-prediction-Component" transform="translate(970.000000, 16.000000)">
                    <path d="M18,24.5 C21.5898509,24.5 24.5,21.5898509 24.5,18 C24.5,14.4101491 21.5898509,11.5 18,11.5 C14.4101491,11.5 11.5,14.4101491 11.5,18 C11.5,21.5898509 14.4101491,24.5 18,24.5 Z M18,26 C13.581722,26 10,22.418278 10,18 C10,13.581722 13.581722,10 18,10 C22.418278,10 26,13.581722 26,18 C26,22.418278 22.418278,26 18,26 Z M16.2819426,15 C15.8361832,15 15.6745401,15.0464128 15.5115771,15.1335664 C15.3486142,15.2207199 15.2207199,15.3486142 15.1335664,15.5115771 C15.0464128,15.6745401 15,15.8361832 15,16.2819426 L15,19.7180574 C15,20.1638168 15.0464128,20.3254599 15.1335664,20.4884229 C15.2207199,20.6513858 15.3486142,20.7792801 15.5115771,20.8664336 C15.6745401,20.9535872 15.8361832,21 16.2819426,21 L19.7180574,21 C20.1638168,21 20.3254599,20.9535872 20.4884229,20.8664336 C20.6513858,20.7792801 20.7792801,20.6513858 20.8664336,20.4884229 C20.9535872,20.3254599 21,20.1638168 21,19.7180574 L21,16.2819426 C21,15.8361832 20.9535872,15.6745401 20.8664336,15.5115771 C20.7792801,15.3486142 20.6513858,15.2207199 20.4884229,15.1335664 C20.3254599,15.0464128 20.1638168,15 19.7180574,15 L16.2819426,15 Z" id="l:10"></path>
                </g>
            </g>
        </g>
    </g>
</svg>