<?xml version="1.0" encoding="UTF-8"?>
<svg width="16px" height="16px" viewBox="0 0 16 16" version="1.1" xmlns="http://www.w3.org/2000/svg" xmlns:xlink="http://www.w3.org/1999/xlink">
    <!-- Generator: sketchtool 50.2 (55047) - http://www.bohemiancoding.com/sketch -->
    <title>3ADDC83F-AEFF-4679-92F7-F7BEE9823CED</title>
    <desc>Created with sketchtool.</desc>
    <defs></defs>
    <g id="Page-1" stroke="none" stroke-width="1" fill="none" fill-rule="evenodd">
        <g id="Voting" transform="translate(-173.000000, -332.000000)" fill="#999999">
            <g id="Group" transform="translate(165.000000, 324.000000)">
                <g id="Group-7">
                    <path d="M10.2733913,22.1831304 L10.2733913,15.2415652 C10.2733913,14.6170435 9.76452174,14.1107826 9.13669565,14.1107826 C8.50904348,14.1107826 8,14.6170435 8,15.2415652 L8,22.1831304 C8,22.8076522 8.50904348,23.313913 9.13669565,23.313913 C9.76452174,23.313913 10.2733913,22.8076522 10.2733913,22.1831304 L10.2733913,22.1831304 Z M13.0245217,21.7104348 C14.3518261,22.2678261 18.4132174,22.848 19.1843478,22.5412174 C19.5918261,22.1726957 20.6161739,19.8542609 21.3307826,17.8845217 C21.3812174,17.7452174 21.4751304,17.6255652 21.5986087,17.5431304 C22.1766957,17.1568696 22.4761739,16.7147826 22.4203478,16.330087 C22.3753043,16.02 22.0951304,15.7556522 21.6707826,15.6229565 C20.7926957,15.3478261 18.6386087,14.8730435 18.6168696,14.8683478 C18.372,14.8144348 18.1749565,14.6342609 18.1001739,14.396 C18.0255652,14.157913 18.0846957,13.8982609 18.2554783,13.7153043 C19.8262609,12.032 20.1046957,10.298087 19.8006957,9.60452174 C19.7073043,9.39165217 19.6102609,9.39165217 19.5582609,9.39165217 C19.2135652,9.39165217 19.0523478,9.63147826 18.6961739,10.6749565 C18.2793043,11.8953043 16.8396522,13.3518261 15.1137391,14.2993043 C14.2763478,14.7587826 13.4384348,15.3589565 13.0245217,15.6671304 L13.0245217,21.7104348 Z M18.305913,24 C16.1474783,24 12.7582609,23.2852174 11.9191304,22.6904348 C11.7349565,22.5598261 11.6255652,22.3486957 11.6255652,22.1236522 L11.6255652,15.3229565 C11.6255652,15.110087 11.7234783,14.9090435 11.8913043,14.7770435 C11.9426087,14.7366957 13.1634783,13.7798261 14.438087,13.0806957 C16.0208696,12.2116522 17.112,10.9874783 17.3716522,10.2271304 C17.6925217,9.28730435 18.132,8 19.5582609,8 C20.2351304,8 20.7909565,8.38208696 21.0829565,9.04817391 C21.6751304,10.3989565 21.0514783,12.2751304 20.0114783,13.7582609 C20.7116522,13.9224348 21.5806957,14.1356522 22.0906087,14.2953043 C23.0403478,14.5923478 23.6812174,15.2787826 23.8048696,16.1311304 C23.932,17.0067826 23.4845217,17.8827826 22.5716522,18.5622609 C21.9017391,20.3866087 20.729913,23.2782609 19.8791304,23.7514783 C19.5648696,23.9262609 18.9986087,24 18.305913,24 L18.305913,24 Z" id="thumbs-up"></path>
                </g>
            </g>
        </g>
    </g>
</svg>