<?xml version="1.0" encoding="UTF-8"?>
<svg width="16px" height="16px" viewBox="0 0 16 16" version="1.1" xmlns="http://www.w3.org/2000/svg" xmlns:xlink="http://www.w3.org/1999/xlink">
    <!-- Generator: sketchtool 50.2 (55047) - http://www.bohemiancoding.com/sketch -->
    <title>2D655A0E-A87F-48AF-A909-862CD4FFCEE8</title>
    <desc>Created with sketchtool.</desc>
    <defs></defs>
    <g id="Page-1" stroke="none" stroke-width="1" fill="none" fill-rule="evenodd">
        <g id="Voting" transform="translate(-375.000000, -332.000000)" fill="#ed462f">
            <g id="Group" transform="translate(165.000000, 324.000000)">
                <g id="Group-6" transform="translate(202.000000, 0.000000)">
                    <path d="M21.5527239,9.81686957 L21.5527239,16.7584348 C21.5527239,17.3829565 22.0615935,17.8892174 22.6894196,17.8892174 C23.3170717,17.8892174 23.8261152,17.3829565 23.8261152,16.7584348 L23.8261152,9.81686957 C23.8261152,9.19234783 23.3170717,8.68608696 22.6894196,8.68608696 C22.0615935,8.68608696 21.5527239,9.19234783 21.5527239,9.81686957 L21.5527239,9.81686957 Z M18.8015935,10.2895652 C17.4742891,9.73217391 13.4128978,9.152 12.6417674,9.45878261 C12.2342891,9.82730435 11.2099413,12.1457391 10.4953326,14.1154783 C10.4448978,14.2547826 10.3509848,14.3744348 10.2275065,14.4568696 C9.64941957,14.8431304 9.34994131,15.2852174 9.40576739,15.669913 C9.45081087,15.98 9.73098478,16.2443478 10.1553326,16.3770435 C11.0334196,16.6521739 13.1875065,17.1269565 13.2092457,17.1316522 C13.4541152,17.1855652 13.6511587,17.3657391 13.7259413,17.6038261 C13.80055,17.842087 13.7414196,18.1017391 13.570637,18.2846957 C11.9998543,19.968 11.7214196,21.701913 12.0254196,22.3954783 C12.1188109,22.6083478 12.2158543,22.6083478 12.2678543,22.6083478 C12.61255,22.6083478 12.7737674,22.3685217 13.1299413,21.3250435 C13.5468109,20.1046957 14.986463,18.6481739 16.7123761,17.7006957 C17.5495935,17.2412174 18.3876804,16.6410435 18.8015935,16.3328696 L18.8015935,10.2895652 Z M13.5202022,8 C15.678637,8 19.0678543,8.71478261 19.9069848,9.30956522 C20.0911587,9.44017391 20.20055,9.65130435 20.20055,9.87634783 L20.20055,16.6770435 C20.20055,16.889913 20.102637,17.0909565 19.9348109,17.2229565 C19.8835065,17.2633043 18.662637,18.2201739 17.3880283,18.9193043 C15.8052457,19.7883478 14.7141152,21.0125217 14.454463,21.7728696 C14.1335935,22.7126957 13.6941152,24 12.2678543,24 C11.5909848,24 11.0351587,23.617913 10.7431587,22.9518261 C10.1509848,21.6010435 10.774637,19.7248696 11.814637,18.2417391 C11.114463,18.0775652 10.2454196,17.8643478 9.73550652,17.7046957 C8.78576739,17.4076522 8.14489783,16.7212174 8.02124565,15.8688696 C7.89411522,14.9932174 8.34159348,14.1172174 9.25446305,13.4377391 C9.92437609,11.6133913 11.0962022,8.72173913 11.9469848,8.24852174 C12.2612457,8.07373913 12.8275065,8 13.5202022,8 L13.5202022,8 Z" id="thumbs-down"></path>
                </g>
            </g>
        </g>
    </g>
</svg>
