<?xml version="1.0" encoding="UTF-8"?>
<svg width="479px" height="129px" viewBox="0 0 479 129" version="1.1" xmlns="http://www.w3.org/2000/svg" xmlns:xlink="http://www.w3.org/1999/xlink">
    <!-- Generator: Sketch 50.2 (55047) - http://www.bohemiancoding.com/sketch -->
    <title>logo_light</title>
    <desc>Created with Sketch.</desc>
    <defs></defs>
    <g id="Page-1" stroke="none" stroke-width="1" fill="none" fill-rule="evenodd">
        <path d="M29.2406871,1.4208094 C41.160458,0.473603134 53.080229,1.36747243e-15 65,0 C76.6850542,0 88.3701085,0.455134974 100.055163,1.36540492 C114.785414,2.51289764 126.487103,14.2145872 127.634595,28.9448384 C128.544865,40.6298922 129,52.3149461 129,64 C129,75.9197706 128.526397,87.8395413 127.579191,99.7593119 C126.428969,114.233874 115.077636,125.806974 100.628034,127.237004 C88.7520227,128.412335 76.8760114,129 65,129 C52.8897835,129 40.7795669,128.388928 28.6693504,127.166783 C14.4833717,125.735154 3.26484382,114.516626 1.83321661,100.330648 C0.611072203,88.2204318 7.22670927e-16,76.1102159 0,64 C0,52.1239887 0.587665185,40.2479774 1.76299555,28.3719661 C3.19302574,13.9223651 14.7661252,2.57103249 29.2406871,1.4208094 Z M65.5424724,20 C40.3900594,20 20,39.9233286 20,64.5 C20,89.0766714 40.3900594,109 65.5424724,109 C85.9347601,109 103.196688,95.9041259 109,77.85 C104.190442,75.275003 97.5945399,75.275003 89.2122927,77.85 C76.6389218,81.7124954 75.6567559,91.2 65.5424724,91.2 C50.4510246,91.2 38.216989,79.2460028 38.216989,64.5 C38.216989,49.7539972 50.4510246,37.8 65.5424724,37.8 C75.6567559,37.8 80.0568927,48.3374872 89.2122883,51.1499926 C95.3158853,53.0249962 101.911789,53.0249986 109,51.15 C103.196688,33.0958741 85.9347601,20 65.5424724,20 Z M147.859375,72.3164062 C147.859375,52.0428674 157.527247,41.90625 176.863281,41.90625 C184.988322,41.90625 191.882784,43.2343617 197.546875,45.890625 L193.269531,61.2421875 C187.917942,59.2109273 182.449247,58.1953125 176.863281,58.1953125 C168.855429,58.1953125 164.851562,62.9022967 164.851562,72.3164062 L164.851562,77.8828125 C164.851562,87.2969221 168.855429,92.0039062 176.863281,92.0039062 C182.449247,92.0039062 187.917942,90.9882914 193.269531,88.9570312 L197.546875,104.308594 C191.882784,106.964857 184.988322,108.292969 176.863281,108.292969 C157.527247,108.292969 147.859375,98.1563514 147.859375,77.8828125 L147.859375,72.3164062 Z M206.453125,72.3164062 C206.453125,52.0428674 216.120997,41.90625 235.457031,41.90625 C254.793065,41.90625 264.460938,52.0428674 264.460938,72.3164062 L264.460938,77.8828125 C264.460938,98.1563514 254.793065,108.292969 235.457031,108.292969 C216.120997,108.292969 206.453125,98.1563514 206.453125,77.8828125 L206.453125,72.3164062 Z M223.445312,77.8828125 C223.445312,87.2969221 227.449179,92.0039062 235.457031,92.0039062 C243.464884,92.0039062 247.46875,87.2969221 247.46875,77.8828125 L247.46875,72.3164062 C247.46875,62.9022967 243.464884,58.1953125 235.457031,58.1953125 C227.449179,58.1953125 223.445312,62.9022967 223.445312,72.3164062 L223.445312,77.8828125 Z M276.179688,41.90625 L293.171875,41.90625 L293.171875,108.292969 L276.179688,108.292969 L276.179688,41.90625 Z M276.179688,16.7109375 L293.171875,16.7109375 L293.171875,35.7539062 L276.179688,35.7539062 L276.179688,16.7109375 Z M304.890625,45.65625 C310.007838,43.1562375 318.699157,41.90625 330.964844,41.90625 C348.347743,41.90625 357.039062,50.1874172 357.039062,66.75 L357.039062,108.292969 L340.046875,108.292969 L340.046875,66.75 C340.046875,61.0468465 337.019562,58.1953125 330.964844,58.1953125 C329.089834,58.1953125 327.410164,58.2539057 325.925781,58.3710938 C324.441399,58.4882818 323.093756,58.6445303 321.882812,58.8398438 L321.882812,108.292969 L304.890625,108.292969 L304.890625,45.65625 Z M368.757812,25.734375 L385.75,21.75 L385.75,108.292969 L368.757812,108.292969 L368.757812,25.734375 Z M397.46875,41.90625 L414.460938,41.90625 L414.460938,108.292969 L397.46875,108.292969 L397.46875,41.90625 Z M397.46875,16.7109375 L414.460938,16.7109375 L414.460938,35.7539062 L397.46875,35.7539062 L397.46875,16.7109375 Z M426.179688,25.734375 L443.171875,21.75 L443.171875,42.7265625 C445.164072,42.1796848 448.191386,41.90625 452.253906,41.90625 C469.636806,41.90625 478.328125,51.1053768 478.328125,69.5039062 L478.328125,80.6367188 C478.328125,99.0743109 469.636806,108.292969 452.253906,108.292969 C439.831969,108.292969 431.14065,106.906264 426.179688,104.132812 L426.179688,25.734375 Z M461.335938,69.5039062 C461.335938,61.9648061 458.308624,58.1953125 452.253906,58.1953125 C450.378897,58.1953125 448.699226,58.2539057 447.214844,58.3710938 C445.730461,58.4882818 444.382819,58.6445303 443.171875,58.8398438 L443.171875,91.359375 C444.382819,91.5546885 445.730461,91.7109369 447.214844,91.828125 C448.699226,91.9453131 450.378897,92.0039062 452.253906,92.0039062 C458.308624,92.0039062 461.335938,88.2148816 461.335938,80.6367188 L461.335938,69.5039062 Z" id="logo_light" fill="#FFFFFF"></path>
    </g>
</svg>